<svg xmlns="http://www.w3.org/2000/svg" viewBox="0 0 32 32" fill="none">
  <rect width="32" height="32" fill="#000000"/>
  <path d="M16 3 L28 7.5 L28 16 C28 22.5 22.5 27.5 16 29.5 C9.5 27.5 4 22.5 4 16 L4 7.5 Z" fill="#FF0033" opacity="0.15" stroke="#FF0033" stroke-width="1.2"/>
  <path d="M16 5.5 L26 9.5 L26 16 C26 21.5 21.5 25.8 16 27.5 C10.5 25.8 6 21.5 6 16 L6 9.5 Z" fill="#FF0033" opacity="0.25"/>
  <path d="M13 15 L15.2 17.2 L19.5 12.5" stroke="#FF0033" stroke-width="2" stroke-linecap="round" stroke-linejoin="round" fill="none"/>
  <path d="M16 3 L28 7.5 L28 16 C28 22.5 22.5 27.5 16 29.5 C9.5 27.5 4 22.5 4 16 L4 7.5 Z" fill="none" stroke="#FF0033" stroke-width="1.5"/>
</svg>
